<?xml version="1.0" standalone="no"?>
<!DOCTYPE svg PUBLIC "-//W3C//DTD SVG 20010904//EN"
 "http://www.w3.org/TR/2001/REC-SVG-20010904/DTD/svg10.dtd">
<svg version="1.0" xmlns="http://www.w3.org/2000/svg"
 width="240.000000pt" height="65.000000pt" viewBox="0 0 240.000000 65.000000"
 preserveAspectRatio="xMidYMid meet">

<g transform="translate(0.000000,65.000000) scale(0.100000,-0.100000)"
fill="#D42427" stroke="none">
<path d="M830 570 c-24 -24 -26 -59 -5 -86 11 -14 14 -49 15 -136 l0 -118 40
0 40 0 0 124 c0 73 4 127 10 131 17 10 11 71 -8 88 -25 23 -68 21 -92 -3z m70
-45 c0 -8 -9 -15 -20 -15 -11 0 -20 7 -20 15 0 8 9 15 20 15 11 0 20 -7 20
-15z"/>
<path d="M2135 565 c-14 -13 -25 -30 -25 -37 0 -8 -24 -38 -54 -67 l-55 -54
-83 77 -83 76 -95 0 -96 0 -42 -43 -42 -43 0 -165 0 -165 38 -37 38 -37 100 0
101 0 82 76 81 76 55 -47 c30 -25 55 -52 55 -59 0 -8 9 -25 21 -40 37 -48 109
-25 109 36 0 26 -27 58 -49 58 -7 0 -43 29 -80 65 -62 60 -71 65 -112 65 -40
0 -48 -5 -114 -69 -70 -68 -70 -69 -136 -74 -89 -8 -109 6 -109 74 l0 49 59 0
c40 0 63 -5 71 -15 35 -42 118 9 105 65 -12 48 -70 66 -111 35 -11 -8 -41 -14
-71 -15 l-53 0 0 48 c0 26 5 53 12 60 7 7 41 12 84 12 l72 0 76 -71 77 -72 47
7 c40 5 56 15 107 65 33 32 72 61 87 65 49 11 51 92 3 114 -36 17 -43 15 -70
-13z m65 -39 c0 -8 -5 -18 -11 -22 -14 -8 -33 11 -25 25 10 16 36 13 36 -3z
m-372 -209 c2 -10 -3 -17 -12 -17 -18 0 -29 16 -21 31 9 14 29 6 33 -14z m367
-205 c0 -18 -20 -15 -23 4 -3 10 1 15 10 12 7 -3 13 -10 13 -16z"/>
<path d="M214 512 c-67 -61 -70 -76 -58 -264 l5 -87 49 -45 49 -46 83 0 84 0
52 53 52 53 0 140 0 140 -53 52 -53 52 -79 0 -80 -1 -51 -47z m207 -54 c16
-20 18 -41 19 -144 0 -141 -4 -147 -89 -158 -50 -7 -56 -5 -82 20 -24 23 -29
36 -29 74 0 26 7 62 16 79 16 33 16 37 -13 92 -2 3 6 18 17 32 19 24 28 27 82
27 50 0 63 -4 79 -22z m-201 -104 c0 -16 -16 -19 -25 -4 -8 13 4 32 16 25 5
-4 9 -13 9 -21z"/>
<path d="M603 553 c-10 -3 -13 -53 -13 -202 l0 -197 43 -41 c41 -41 43 -42
127 -46 47 -2 98 -8 113 -12 22 -6 33 -3 53 15 28 27 31 56 8 88 -18 26 -68
29 -98 7 -12 -9 -42 -15 -71 -15 -41 0 -56 5 -73 23 -21 22 -22 32 -22 205 l0
182 -27 -1 c-16 0 -34 -3 -40 -6z m294 -428 c7 -20 -2 -29 -21 -22 -9 4 -13
13 -10 22 8 19 23 19 31 0z"/>
<path d="M998 558 c-1 -2 -5 -93 -9 -203 -3 -110 -10 -215 -14 -233 -10 -43
15 -72 60 -72 45 0 70 30 60 72 -4 18 -10 104 -12 191 l-4 157 29 0 c16 0 41
-9 56 -21 31 -24 35 -77 11 -126 -29 -59 20 -109 84 -87 37 13 50 57 28 96
-24 42 -21 77 10 110 20 21 36 28 65 28 l38 0 0 -147 c-1 -114 -4 -152 -15
-167 -34 -45 -5 -106 49 -106 52 0 89 59 60 97 -10 14 -13 64 -14 209 l0 191
-46 7 c-88 12 -109 8 -154 -28 l-43 -34 -45 34 c-42 32 -50 34 -118 34 -41 0
-75 -1 -76 -2z m252 -261 c0 -8 -3 -17 -7 -20 -9 -9 -34 13 -27 24 8 14 34 11
34 -4z m-197 -182 c1 -5 -6 -11 -15 -13 -11 -2 -18 3 -18 13 0 17 30 18 33 0z
m400 0 c1 -5 -6 -11 -15 -13 -11 -2 -18 3 -18 13 0 17 30 18 33 0z"/>
</g>
</svg>
